<mxfile host="app.diagrams.net" modified="2022-03-22T11:00:55.128Z" agent="5.0 (Macintosh; Intel Mac OS X 10_15_7) AppleWebKit/605.1.15 (KHTML, like Gecko) Version/15.4 Safari/605.1.15" etag="NeXeEdxI0Xdjlqj-aX7B" version="17.1.3" type="github">
  <diagram id="HRKEgr2g2JrtlHb0zNQG" name="Page-1">
    <mxGraphModel dx="946" dy="645" grid="1" gridSize="10" guides="1" tooltips="1" connect="1" arrows="1" fold="1" page="1" pageScale="1" pageWidth="827" pageHeight="1169" math="0" shadow="0">
      <root>
        <mxCell id="0" />
        <mxCell id="1" parent="0" />
        <mxCell id="8yaNN160rDlzsBLFCEpy-40" value="" style="edgeStyle=orthogonalEdgeStyle;rounded=0;orthogonalLoop=1;jettySize=auto;html=1;fontSize=12;fontColor=#000000;endArrow=openThin;endFill=0;" parent="1" source="8yaNN160rDlzsBLFCEpy-4" target="8yaNN160rDlzsBLFCEpy-11" edge="1">
          <mxGeometry relative="1" as="geometry" />
        </mxCell>
        <mxCell id="8yaNN160rDlzsBLFCEpy-4" value="" style="shape=actor;whiteSpace=wrap;html=1;" parent="1" vertex="1">
          <mxGeometry x="118.09" y="90" width="53.34" height="70" as="geometry" />
        </mxCell>
        <mxCell id="8yaNN160rDlzsBLFCEpy-36" style="edgeStyle=orthogonalEdgeStyle;rounded=0;orthogonalLoop=1;jettySize=auto;html=1;exitX=0.5;exitY=1;exitDx=0;exitDy=0;fontSize=12;fontColor=#000000;endArrow=openThin;endFill=0;entryX=0.5;entryY=0;entryDx=0;entryDy=0;" parent="1" source="8yaNN160rDlzsBLFCEpy-5" target="8yaNN160rDlzsBLFCEpy-34" edge="1">
          <mxGeometry relative="1" as="geometry">
            <mxPoint x="146.56521739130437" y="340" as="targetPoint" />
          </mxGeometry>
        </mxCell>
        <mxCell id="8yaNN160rDlzsBLFCEpy-5" value="" style="whiteSpace=wrap;html=1;gradientColor=#ffffff;fillColor=none;" parent="1" vertex="1">
          <mxGeometry x="81.01" y="240" width="127.49" height="60" as="geometry" />
        </mxCell>
        <mxCell id="8yaNN160rDlzsBLFCEpy-7" value="Patient" style="text;html=1;strokeColor=none;fillColor=none;align=center;verticalAlign=middle;whiteSpace=wrap;rounded=0;" parent="1" vertex="1">
          <mxGeometry x="116.66999999999999" y="130" width="60" height="30" as="geometry" />
        </mxCell>
        <mxCell id="8yaNN160rDlzsBLFCEpy-11" value="WES&amp;amp;RNA seq" style="text;html=1;strokeColor=none;fillColor=none;align=center;verticalAlign=middle;whiteSpace=wrap;rounded=0;" parent="1" vertex="1">
          <mxGeometry x="96.66999999999999" y="238.75" width="97" height="55" as="geometry" />
        </mxCell>
        <mxCell id="8yaNN160rDlzsBLFCEpy-19" value="&lt;font style=&quot;font-size: 12px&quot;&gt;Quality &amp;nbsp;Control&lt;/font&gt;" style="text;html=1;strokeColor=none;fillColor=none;align=center;verticalAlign=middle;whiteSpace=wrap;rounded=0;fontSize=9;" parent="1" vertex="1">
          <mxGeometry x="100.09" y="360" width="90.17" height="35" as="geometry" />
        </mxCell>
        <mxCell id="8yaNN160rDlzsBLFCEpy-20" value="" style="whiteSpace=wrap;html=1;gradientColor=#ffffff;fillColor=none;" parent="1" vertex="1">
          <mxGeometry x="81.01" y="470" width="128.33" height="70" as="geometry" />
        </mxCell>
        <mxCell id="8yaNN160rDlzsBLFCEpy-22" value="&lt;span style=&quot;font-size: 12px&quot;&gt;Somatic Mutation Calling&lt;/span&gt;" style="text;html=1;strokeColor=none;fillColor=none;align=center;verticalAlign=middle;whiteSpace=wrap;rounded=0;fontSize=9;" parent="1" vertex="1">
          <mxGeometry x="96.67" y="480" width="100" height="30" as="geometry" />
        </mxCell>
        <mxCell id="8yaNN160rDlzsBLFCEpy-25" value="" style="edgeStyle=orthogonalEdgeStyle;rounded=0;orthogonalLoop=1;jettySize=auto;html=1;fontSize=9;fontColor=#FF3333;endArrow=openThin;endFill=0;" parent="1" target="8yaNN160rDlzsBLFCEpy-24" edge="1">
          <mxGeometry relative="1" as="geometry">
            <mxPoint x="147" y="540" as="sourcePoint" />
          </mxGeometry>
        </mxCell>
        <mxCell id="8yaNN160rDlzsBLFCEpy-23" value="&lt;font color=&quot;#ff3333&quot;&gt;GATK4&lt;/font&gt;" style="text;html=1;strokeColor=none;fillColor=none;align=center;verticalAlign=middle;whiteSpace=wrap;rounded=0;fontSize=9;" parent="1" vertex="1">
          <mxGeometry x="116.26" y="510" width="60" height="30" as="geometry" />
        </mxCell>
        <mxCell id="8yaNN160rDlzsBLFCEpy-29" value="" style="edgeStyle=orthogonalEdgeStyle;rounded=0;orthogonalLoop=1;jettySize=auto;html=1;fontSize=11;fontColor=#000000;endArrow=openThin;endFill=0;" parent="1" source="8yaNN160rDlzsBLFCEpy-24" target="8yaNN160rDlzsBLFCEpy-28" edge="1">
          <mxGeometry relative="1" as="geometry" />
        </mxCell>
        <mxCell id="8yaNN160rDlzsBLFCEpy-24" value="" style="whiteSpace=wrap;html=1;fontSize=9;fontColor=#FF3333;fillColor=none;gradientColor=#ffffff;" parent="1" vertex="1">
          <mxGeometry x="86.67000000000002" y="615" width="120" height="60" as="geometry" />
        </mxCell>
        <mxCell id="8yaNN160rDlzsBLFCEpy-26" value="&lt;font style=&quot;font-size: 11px&quot; color=&quot;#000000&quot;&gt;Copy Number&lt;br&gt;Analysis&lt;/font&gt;" style="text;html=1;strokeColor=none;fillColor=none;align=center;verticalAlign=middle;whiteSpace=wrap;rounded=0;fontSize=9;fontColor=#FF3333;" parent="1" vertex="1">
          <mxGeometry x="113" y="620" width="77" height="30" as="geometry" />
        </mxCell>
        <mxCell id="8yaNN160rDlzsBLFCEpy-27" value="&lt;font color=&quot;#ff3333&quot;&gt;GATK4&lt;/font&gt;" style="text;html=1;strokeColor=none;fillColor=none;align=center;verticalAlign=middle;whiteSpace=wrap;rounded=0;fontSize=9;" parent="1" vertex="1">
          <mxGeometry x="116.67" y="645" width="60" height="30" as="geometry" />
        </mxCell>
        <mxCell id="8yaNN160rDlzsBLFCEpy-43" value="" style="edgeStyle=orthogonalEdgeStyle;rounded=0;orthogonalLoop=1;jettySize=auto;html=1;fontSize=12;fontColor=#000000;endArrow=openThin;endFill=0;" parent="1" source="8yaNN160rDlzsBLFCEpy-28" target="8yaNN160rDlzsBLFCEpy-42" edge="1">
          <mxGeometry relative="1" as="geometry" />
        </mxCell>
        <mxCell id="8yaNN160rDlzsBLFCEpy-28" value="" style="whiteSpace=wrap;html=1;fontSize=9;fontColor=#FF3333;fillColor=none;gradientColor=#ffffff;" parent="1" vertex="1">
          <mxGeometry x="86.67000000000002" y="755" width="120" height="60" as="geometry" />
        </mxCell>
        <mxCell id="8yaNN160rDlzsBLFCEpy-30" value="&lt;font style=&quot;font-size: 11px&quot; color=&quot;#000000&quot;&gt;Copy Number&lt;br&gt;Analysis&lt;/font&gt;" style="text;html=1;strokeColor=none;fillColor=none;align=center;verticalAlign=middle;whiteSpace=wrap;rounded=0;fontSize=9;fontColor=#FF3333;" parent="1" vertex="1">
          <mxGeometry x="108.17" y="770" width="77" height="30" as="geometry" />
        </mxCell>
        <mxCell id="8yaNN160rDlzsBLFCEpy-35" style="edgeStyle=orthogonalEdgeStyle;rounded=0;orthogonalLoop=1;jettySize=auto;html=1;exitX=0.5;exitY=1;exitDx=0;exitDy=0;entryX=0.5;entryY=0;entryDx=0;entryDy=0;fontSize=12;fontColor=#000000;endArrow=openThin;endFill=0;" parent="1" source="8yaNN160rDlzsBLFCEpy-34" target="8yaNN160rDlzsBLFCEpy-20" edge="1">
          <mxGeometry relative="1" as="geometry" />
        </mxCell>
        <mxCell id="8yaNN160rDlzsBLFCEpy-34" value="" style="whiteSpace=wrap;html=1;gradientColor=#ffffff;fillColor=none;" parent="1" vertex="1">
          <mxGeometry x="81.00999999999999" y="350" width="128.33" height="67.5" as="geometry" />
        </mxCell>
        <mxCell id="8yaNN160rDlzsBLFCEpy-42" value="" style="whiteSpace=wrap;html=1;fontSize=9;fontColor=#FF3333;fillColor=none;gradientColor=#ffffff;" parent="1" vertex="1">
          <mxGeometry x="320" y="755" width="120" height="60" as="geometry" />
        </mxCell>
        <mxCell id="8yaNN160rDlzsBLFCEpy-47" value="" style="edgeStyle=orthogonalEdgeStyle;rounded=0;orthogonalLoop=1;jettySize=auto;html=1;fontSize=12;fontColor=#000000;endArrow=openThin;endFill=0;" parent="1" source="8yaNN160rDlzsBLFCEpy-45" target="8yaNN160rDlzsBLFCEpy-46" edge="1">
          <mxGeometry relative="1" as="geometry" />
        </mxCell>
        <mxCell id="8yaNN160rDlzsBLFCEpy-45" value="&lt;font color=&quot;#000000&quot;&gt;&lt;span style=&quot;font-size: 11px&quot;&gt;Power calculation for somatic mutation detection&lt;/span&gt;&lt;/font&gt;" style="text;html=1;strokeColor=none;fillColor=none;align=center;verticalAlign=middle;whiteSpace=wrap;rounded=0;fontSize=9;fontColor=#FF3333;" parent="1" vertex="1">
          <mxGeometry x="320.75" y="765" width="118.5" height="40" as="geometry" />
        </mxCell>
        <mxCell id="8yaNN160rDlzsBLFCEpy-50" value="" style="edgeStyle=orthogonalEdgeStyle;rounded=0;orthogonalLoop=1;jettySize=auto;html=1;fontSize=12;fontColor=#000000;endArrow=openThin;endFill=0;" parent="1" source="8yaNN160rDlzsBLFCEpy-46" target="8yaNN160rDlzsBLFCEpy-49" edge="1">
          <mxGeometry relative="1" as="geometry" />
        </mxCell>
        <mxCell id="8yaNN160rDlzsBLFCEpy-46" value="" style="whiteSpace=wrap;html=1;fontSize=12;fontColor=#000000;fillColor=none;gradientColor=#ffffff;" parent="1" vertex="1">
          <mxGeometry x="540" y="755" width="120" height="60" as="geometry" />
        </mxCell>
        <mxCell id="8yaNN160rDlzsBLFCEpy-48" value="&lt;font color=&quot;#000000&quot;&gt;&lt;span style=&quot;font-size: 11px&quot;&gt;Transcriptomic Analysis&lt;/span&gt;&lt;/font&gt;" style="text;html=1;strokeColor=none;fillColor=none;align=center;verticalAlign=middle;whiteSpace=wrap;rounded=0;fontSize=9;fontColor=#FF3333;" parent="1" vertex="1">
          <mxGeometry x="561.5" y="765" width="77" height="30" as="geometry" />
        </mxCell>
        <mxCell id="8yaNN160rDlzsBLFCEpy-54" value="" style="edgeStyle=orthogonalEdgeStyle;rounded=0;orthogonalLoop=1;jettySize=auto;html=1;fontSize=12;fontColor=#000000;endArrow=openThin;endFill=0;" parent="1" source="8yaNN160rDlzsBLFCEpy-49" target="8yaNN160rDlzsBLFCEpy-53" edge="1">
          <mxGeometry relative="1" as="geometry" />
        </mxCell>
        <mxCell id="8yaNN160rDlzsBLFCEpy-49" value="" style="whiteSpace=wrap;html=1;fontSize=12;fontColor=#000000;fillColor=none;gradientColor=#ffffff;" parent="1" vertex="1">
          <mxGeometry x="540" y="580" width="120" height="60" as="geometry" />
        </mxCell>
        <mxCell id="8yaNN160rDlzsBLFCEpy-51" value="&lt;font color=&quot;#ff3333&quot;&gt;STAR&lt;br&gt;&lt;/font&gt;" style="text;html=1;strokeColor=none;fillColor=none;align=center;verticalAlign=middle;whiteSpace=wrap;rounded=0;fontSize=9;" parent="1" vertex="1">
          <mxGeometry x="570" y="785" width="60" height="30" as="geometry" />
        </mxCell>
        <mxCell id="8yaNN160rDlzsBLFCEpy-52" value="&lt;font color=&quot;#000000&quot;&gt;&lt;span style=&quot;font-size: 11px&quot;&gt;Identification of Neoantigen&lt;br&gt;&lt;/span&gt;&lt;/font&gt;NetMHCpan" style="text;html=1;strokeColor=none;fillColor=none;align=center;verticalAlign=middle;whiteSpace=wrap;rounded=0;fontSize=9;fontColor=#FF3333;" parent="1" vertex="1">
          <mxGeometry x="561.5" y="595" width="77" height="30" as="geometry" />
        </mxCell>
        <mxCell id="fIgYzWInsvDv83NrKZCU-1" style="edgeStyle=orthogonalEdgeStyle;rounded=0;orthogonalLoop=1;jettySize=auto;html=1;exitX=0.5;exitY=0;exitDx=0;exitDy=0;entryX=1;entryY=0.25;entryDx=0;entryDy=0;fontSize=12;fontColor=#000000;endArrow=openThin;endFill=0;" edge="1" parent="1" source="8yaNN160rDlzsBLFCEpy-53" target="8yaNN160rDlzsBLFCEpy-7">
          <mxGeometry relative="1" as="geometry" />
        </mxCell>
        <mxCell id="8yaNN160rDlzsBLFCEpy-53" value="" style="whiteSpace=wrap;html=1;fontSize=12;fontColor=#000000;fillColor=none;gradientColor=#ffffff;" parent="1" vertex="1">
          <mxGeometry x="540" y="410" width="120" height="60" as="geometry" />
        </mxCell>
        <mxCell id="8yaNN160rDlzsBLFCEpy-55" value="&lt;font color=&quot;#000000&quot;&gt;&lt;span style=&quot;font-size: 11px&quot;&gt;Synthesis of long peptides&lt;/span&gt;&lt;/font&gt;" style="text;html=1;strokeColor=none;fillColor=none;align=center;verticalAlign=middle;whiteSpace=wrap;rounded=0;fontSize=9;fontColor=#FF3333;" parent="1" vertex="1">
          <mxGeometry x="550.75" y="425" width="98.5" height="30" as="geometry" />
        </mxCell>
      </root>
    </mxGraphModel>
  </diagram>
</mxfile>
